<svg xmlns="http://www.w3.org/2000/svg" width="29" height="28" viewBox="0 0 29 28" fill="none">
    <path
        d="M0.64096 6.8978C0.650817 6.95312 0.658797 7.00843 0.662082 7.06421C0.703857 7.78008 1.24505 13.4919 8.04912 20.4464C8.04912 20.4464 13.9266 26.4361 20.1126 27.6955C20.1393 27.701 20.1656 27.707 20.1923 27.7144C20.5669 27.8162 23.7512 28.6211 25.3926 26.975L27.731 24.6785C27.7521 24.6577 27.7742 24.6375 27.7967 24.6181C28.03 24.4176 29.654 22.9172 28.0295 21.3218C26.3853 19.707 24.3125 17.7382 24.0778 17.5151C24.0666 17.5045 24.0558 17.4939 24.045 17.4829C23.9178 17.3529 22.7096 16.1839 21.2944 17.2519C21.2536 17.2828 21.2151 17.3174 21.1785 17.3533L18.8889 19.6079C18.3759 20.0942 17.561 20.0878 17.0555 19.5936L9.23336 11.9412C8.70812 11.4272 8.72174 10.5878 9.2634 10.0904L11.094 8.41068C11.094 8.41068 13.0996 6.58711 10.9456 4.61742L7.74825 1.47735C7.72854 1.45799 7.70976 1.43817 7.69099 1.41743C7.48446 1.18879 5.95195 -0.376636 4.15377 1.3658C4.09885 1.41881 4.03924 1.46675 3.97588 1.50916C3.36569 1.92034 0.158911 4.21777 0.64096 6.8978Z"
        fill="white" />
</svg>